<?xml version="1.0" encoding="UTF-8" standalone="no"?>
<svg
   version="1.1"
   width="24"
   height="24"
   viewBox="0 0 24 24"
   id="svg4"
   sodipodi:docname="rotate-orbit.svg"
   inkscape:version="1.1.2 (0a00cf5339, 2022-02-04)"
   xmlns:inkscape="http://www.inkscape.org/namespaces/inkscape"
   xmlns:sodipodi="http://sodipodi.sourceforge.net/DTD/sodipodi-0.dtd"
   xmlns="http://www.w3.org/2000/svg"
   xmlns:svg="http://www.w3.org/2000/svg">
  <defs
     id="defs8" />
  <sodipodi:namedview
     id="namedview6"
     pagecolor="#ffffff"
     bordercolor="#111111"
     borderopacity="1"
     inkscape:pageshadow="0"
     inkscape:pageopacity="0"
     inkscape:pagecheckerboard="1"
     showgrid="false"
     inkscape:zoom="22.863119"
     inkscape:cx="11.700066"
     inkscape:cy="13.427739"
     inkscape:window-width="1920"
     inkscape:window-height="1011"
     inkscape:window-x="0"
     inkscape:window-y="0"
     inkscape:window-maximized="1"
     inkscape:current-layer="svg4" />
  <path
     d="M 9.0418352,13.663968 6.6383263,11.260459 H 8.3022939 C 8.4871793,7.1116327 10.069797,3.8650467 12,3.8650467 c 1.479082,0 2.78807,1.9523888 3.364913,4.7700408 2.817651,0.5768421 4.77004,1.8858305 4.77004,3.3649125 0,1.35336 -1.604804,2.536627 -3.993523,3.180026 l 0.214468,-1.501267 C 17.768422,13.272011 18.65587,12.672982 18.65587,12 c 0,-0.783914 -1.220242,-1.479082 -3.054305,-1.848853 0.05917,0.584238 0.09614,1.205452 0.09614,1.848853 0,4.49641 -1.656571,8.134953 -3.697706,8.134953 -1.35336,0 -2.5366261,-1.604804 -3.180027,-3.993523 l 1.501269,0.214468 c 0.406748,1.412524 1.005776,2.299972 1.678758,2.299972 1.227638,0 2.218624,-2.98035 2.218624,-6.65587 0,-0.739541 -0.03698,-1.442105 -0.110932,-2.1076921 C 13.442105,9.8183537 12.739541,9.7813766 12,9.7813766 L 10.624454,9.8257491 10.83892,8.3392709 12,8.3022939 c 0.643401,0 1.264615,0.036977 1.848852,0.09614 C 13.479082,6.5643722 12.783914,5.3441292 12,5.3441292 c -1.138894,0 -2.0855058,2.5883942 -2.2186234,5.9163298 h 1.6639674 l -2.4035088,2.403509 m 4.6221328,1.294197 -2.403509,2.403509 V 15.697706 C 7.1116327,15.512821 3.8650467,13.930203 3.8650467,12 c 0,-1.35336 1.6048045,-2.5366264 3.9935226,-3.1800272 L 7.6441023,10.321241 C 6.2315786,10.72799 5.3441292,11.327018 5.3441292,12 c 0,1.138894 2.5883942,2.085506 5.9163298,2.218623 v -1.663967 z"
     id="path2"
     style="fill:#ffffff;fill-opacity:1;stroke-width:0.739541" />
</svg>
